0
SECTION
2
HEADER
9
$INSUNITS
70
4
9
$ACADVER
1
AC1014
9
$HANDSEED
5
FFFF
0
ENDSEC
0
SECTION
2
TABLES
0
TABLE
2
VPORT
5
8
100
AcDbSymbolTable
0
ENDTAB
0
TABLE
2
LTYPE
5
5
100
AcDbSymbolTable
0
LTYPE
5
14
100
AcDbSymbolTableRecord
100
AcDbLinetypeTableRecord
2
BYBLOCK
70
0
0
LTYPE
5
15
100
AcDbSymbolTableRecord
100
AcDbLinetypeTableRecord
2
BYLAYER
70
0
0
ENDTAB
0
TABLE
2
LAYER
5
2
100
AcDbSymbolTable
70
2
0
LAYER
5
50
100
AcDbSymbolTableRecord
100
AcDbLayerTableRecord
2
0
70
0
6
CONTINUOUS
0
ENDTAB
0
TABLE
2
STYLE
5
3
100
AcDbSymbolTable
70
1
0
STYLE
5
11
100
AcDbSymbolTableRecord
100
AcDbTextStyleTableRecord
2
STANDARD
70
0
0
ENDTAB
0
TABLE
2
VIEW
5
6
100
AcDbSymbolTable
70
0
0
ENDTAB
0
TABLE
2
UCS
5
7
100
AcDbSymbolTable
70
0
0
ENDTAB
0
TABLE
2
APPID
5
9
100
AcDbSymbolTable
70
2
0
APPID
5
12
100
AcDbSymbolTableRecord
100
AcDbRegAppTableRecord
2
ACAD
70
0
0
ENDTAB
0
TABLE
2
DIMSTYLE
5
A
100
AcDbSymbolTable
70
1
0
ENDTAB
0
TABLE
2
BLOCK_RECORD
5
1
100
AcDbSymbolTable
70
1
0
BLOCK_RECORD
5
1F
100
AcDbSymbolTableRecord
100
AcDbBlockTableRecord
2
*MODEL_SPACE
0
BLOCK_RECORD
5
1B
100
AcDbSymbolTableRecord
100
AcDbBlockTableRecord
2
*PAPER_SPACE
0
ENDTAB
0
ENDSEC
0
SECTION
2
BLOCKS
0
BLOCK
5
20
100
AcDbEntity
100
AcDbBlockBegin
2
*MODEL_SPACE
0
ENDBLK
5
21
100
AcDbEntity
100
AcDbBlockEnd
0
BLOCK
5
1C
100
AcDbEntity
100
AcDbBlockBegin
2
*PAPER_SPACE
0
ENDBLK
5
1D
100
AcDbEntity
100
AcDbBlockEnd
0
ENDSEC
0
SECTION
2
ENTITIES
0
LINE
5
100
100
AcDbEntity
8
0
100
AcDbLine
10
0
20
0
30
0
11
-6.1500000000000021
21
0
31
0
0
LINE
5
101
100
AcDbEntity
8
0
100
AcDbLine
10
-16.649999999999999
20
10.499999999999998
30
0
11
-16.649999999999999
21
30.000000000000007
31
0
0
LINE
5
102
100
AcDbEntity
8
0
100
AcDbLine
10
0
20
40.5
30
0
11
-6.150000000000003
21
40.5
31
0
0
LINE
5
103
100
AcDbEntity
8
0
100
AcDbLine
10
0
20
40.5
30
0
11
6.150000000000003
21
40.5
31
0
0
LINE
5
104
100
AcDbEntity
8
0
100
AcDbLine
10
0
20
0
30
0
11
6.1500000000000021
21
0
31
0
0
LWPOLYLINE
5
105
100
AcDbEntity
8
0
100
AcDbPolyline
90
5
70
1
43
0.0
10
-13.081069456875941
20
30.612190122466288
10
-14.11101575272713
20
32.328767282219204
42
-0.070937244351375967
10
-14.220642820073554
20
32.588942533114327
10
-9.6504356625868564
20
31.413778584059536
10
-10.704050562640832
20
30.35427358350212
42
-0.49687904195536525
0
ARC
5
106
100
AcDbEntity
8
0
100
AcDbCircle
10
79.832101052171339
20
-37.654261275614516
30
0
40
117.76829324467826
210
0
220
0
230
1
100
AcDbArc
50
140.67148642554872
51
142.46836873993433
0
LWPOLYLINE
5
107
100
AcDbEntity
8
0
100
AcDbPolyline
90
2
70
1
43
0.0
10
-9.7032979396139503
20
37.604726492970869
10
-9.7045523189344589
20
37.611611945837673
42
0.00077764274941625252
0
LINE
5
108
100
AcDbEntity
8
0
100
AcDbLine
10
-8.3904956561089215
20
31.326422045946025
30
0
11
-8.4091768534991314
21
31.253770955779562
31
0
0
LINE
5
109
100
AcDbEntity
8
0
100
AcDbLine
10
-12.837457610350018
20
33.904266881146611
30
0
11
-13.560174122915658
21
34.090103181709637
31
0
0
ARC
5
110
100
AcDbEntity
8
0
100
AcDbCircle
10
-8.5987411967293106
20
34.426583920936444
30
0
40
1.5841371040456975
210
0
220
0
230
1
100
AcDbArc
50
-105.07444128679795
51
58.650828471461402
0
ARC
5
111
100
AcDbEntity
8
0
100
AcDbCircle
10
-99.165316922156109
20
-301.82437833013989
30
0
40
346.65000001264224
210
0
220
-0
230
1
100
AcDbArc
50
74.925558713201866
51
75.579605252383843
0
CIRCLE
5
112
100
AcDbEntity
8
0
100
AcDbCircle
10
-7.4903608968119144
20
38.011432338262722
30
0
40
0.75
210
0
220
0
230
1
0
LWPOLYLINE
5
113
100
AcDbEntity
8
0
100
AcDbPolyline
90
6
70
1
43
0.0
10
-0.84476201401404327
20
38.779870579645689
10
-0.84476201401404327
20
35.785608938314063
42
-0.73328387541136386
10
-1.2995699941437997
20
35.642243352223232
10
-3.3955531430759405
20
38.636504993554858
42
-0.60676725786806751
10
-3.1907451629461807
20
39.029870579645689
10
-1.0947620140140419
20
39.029870579645689
42
-0.41421356237309409
0
LWPOLYLINE
5
114
100
AcDbEntity
8
0
100
AcDbPolyline
90
10
70
1
43
0.0
10
-3.1766311090557342
20
34.507508359135336
42
0.018775471329375831
10
-2.9259147236115512
20
34.841009800928703
42
0.31422222261262922
10
-2.9260188089383901
20
34.898206764574567
10
-4.5873639840292348
20
37.271557014704428
42
0.63692809009547791
10
-4.6766148267891259
20
37.25585111178448
42
-0.17886594255812563
10
-5.8441703516019405
20
35.607658924391039
42
0.48430974161554685
10
-5.8495238844810826
20
35.529382843474345
42
-0.21487113514185396
10
-5.1948206309463174
20
34.024856125053681
42
0.52632875362407894
10
-5.0601363544613225
20
33.929780395533157
42
-0.032722265850372544
10
-3.232091766403494
20
34.473043078373109
42
0.16784201960423811
0
LWPOLYLINE
5
115
100
AcDbEntity
8
0
100
AcDbPolyline
90
8
70
1
43
0.0
10
-4.7499998971819881
20
39.449032897220825
10
-5.4241186064845675
20
39.449032897220825
42
0.60016976430089597
10
-5.4656271856752348
20
39.371157498504942
42
-0.083170257275743786
10
-5.1330636699122723
20
38.63717101891168
42
0.34010555846312945
10
-5.0847372859937234
20
38.599999137221836
10
-4.7499998971819943
20
38.59999913722276
42
0.41421356237309398
10
-4.5999998971819878
20
38.749999137222765
10
-4.5999998971819842
20
39.299032897220826
42
0.41421356237309936
0
SPLINE
5
116
100
AcDbEntity
8
0
100
AcDbSpline
70
6
71
5
72
31
73
25
74
0
42
0.000000001
43
0.0000000001
44
0.0000000001
40
0
40
0
40
0
40
0
40
0
40
0
40
0.050000000000000003
40
0.10000000000000001
40
0.15000000000000002
40
0.20000000000000001
40
0.25
40
0.29999999999999999
40
0.34999999999999998
40
0.39999999999999997
40
0.44999999999999996
40
0.49999999999999994
40
0.54999999999999993
40
0.59999999999999998
40
0.65000000000000002
40
0.70000000000000007
40
0.75000000000000011
40
0.80000000000000016
40
0.8500000000000002
40
0.90000000000000024
40
0.95000000000000029
40
1
40
1
40
1
40
1
40
1
40
1
41
1
41
1
41
1
41
1
41
1
41
1
41
1
41
1
41
1
41
1
41
1
41
1
41
1
41
1
41
1
41
1
41
1
41
1
41
1
41
1
41
1
41
1
41
1
41
1
41
1
10
0.2657887292810896
20
36.060314957486071
30
0
10
0.33852613493377515
20
36.029869088058945
30
0
10
0.49962692366784667
20
36.006459915191662
30
0
10
0.77321344432720274
20
36.078462736747511
30
0
10
1.137551947908376
20
36.34093391110995
30
0
10
1.608195071092293
20
36.841834698044586
30
0
10
2.1390732922756022
20
37.399908700821236
30
0
10
2.7905309549944346
20
37.92442010122808
30
0
10
3.5573445487269844
20
38.364199019380194
30
0
10
4.3565523579654002
20
38.71406595707171
30
0
10
5.0574017621166734
20
38.993677001158517
30
0
10
5.5005234392018219
20
39.2346868320898
30
0
10
5.5224708162661909
20
39.465389975463232
30
0
10
4.9680750320367952
20
39.695667221971966
30
0
10
3.9775658211052223
20
39.88400288019082
30
0
10
2.8197548156711911
20
39.966189120095002
30
0
10
1.7723244295946794
20
39.862926866594094
30
0
10
1.0510102501621863
20
39.514501889984189
30
0
10
0.56447595490024438
20
38.859982323711321
30
0
10
0.16603136799942098
20
37.96435473204707
30
0
10
-0.068152919681131657
20
37.038703251389634
30
0
10
-0.069750234049333545
20
36.454475404080519
30
0
10
0.063202489751732607
20
36.189135131754369
30
0
10
0.19305132362840441
20
36.090760826913204
30
0
10
0.2657887292810896
20
36.060314957486071
30
0
0
LWPOLYLINE
5
117
100
AcDbEntity
8
0
100
AcDbPolyline
90
6
70
1
43
0.0
10
11.303930288513293
20
32.682513239519665
10
12.309901199976865
20
35.248241757607971
42
-0.4414348551086722
10
12.999922953266374
20
35.512483313152863
42
-0.27408643584444603
10
14.919882008402404
20
32.517513018577318
42
-0.42451189714597848
10
14.420188791154358
20
32.00000047066078
10
11.769429042437574
20
32.000000474364718
42
-0.52840704432865393
0
LWPOLYLINE
5
118
100
AcDbEntity
8
0
100
AcDbPolyline
90
8
70
1
43
0.0
10
12.679932921987083
20
28.163154851865976
42
0.033275488668275004
10
11.518097426184431
20
29.775342529096083
42
-0.63456042999009299
10
11.710752485056178
20
30.184666188014411
10
14.964235399007775
20
30.184666188014411
42
-0.41421356237308982
10
15.214235399007773
20
29.934666188014418
10
15.214235399007773
20
28.295512589211139
42
-0.41421356237315743
10
14.964235399007775
20
28.045512589211086
10
12.8920211804195
20
28.045512589211082
42
-0.25877114303203325
0
LINE
5
119
100
AcDbEntity
8
0
100
AcDbLine
10
15.649999999999999
20
23.749999999999996
30
0
11
13.784048752079116
21
23.749999999996355
31
0
0
LINE
5
120
100
AcDbEntity
8
0
100
AcDbLine
10
15.649999999999999
20
16.749999999999993
30
0
11
13.784048752090222
21
16.749999999999993
31
0
0
ARC
5
121
100
AcDbEntity
8
0
100
AcDbCircle
10
-8.4751883463556739e-12
20
20.249999999988063
30
0
40
13.499999999999998
210
0
220
-0
230
1
100
AcDbArc
50
18.080012624459574
51
341.91998737560925
0
LINE
5
122
100
AcDbEntity
8
0
100
AcDbLine
10
16.649999999999999
20
10.499999999999998
30
0
11
16.649999999999999
21
15.749999999999993
31
0
0
LINE
5
123
100
AcDbEntity
8
0
100
AcDbLine
10
16.649999999999999
20
24.749999999999996
30
0
11
16.650000000000002
21
30
31
0
0
CIRCLE
5
124
100
AcDbEntity
8
0
100
AcDbCircle
10
14.577364235764509
20
25.697269443799073
30
0
40
1.1018415558273151
210
0
220
0
230
1
0
ARC
5
125
100
AcDbEntity
8
0
100
AcDbCircle
10
13.784048752079045
20
24.749999999996348
30
0
40
1.0000000000000051
210
0
220
0
230
1
100
AcDbArc
50
198.0800126244597
51
270.00000000000409
0
ARC
5
126
100
AcDbEntity
8
0
100
AcDbCircle
10
15.649999999999995
20
24.75
30
0
40
1.0000000000000053
210
0
220
0
230
1
100
AcDbArc
50
270.00000000000023
51
360
0
ARC
5
127
100
AcDbEntity
8
0
100
AcDbCircle
10
13.78404875208445
20
15.749999999996332
30
0
40
1.0000000000036624
210
0
220
-0
230
1
100
AcDbArc
50
89.999999999669313
51
161.91998737560931
0
ARC
5
128
100
AcDbEntity
8
0
100
AcDbCircle
10
15.649999999999997
20
15.749999999999991
30
0
40
1.0000000000000031
210
0
220
-0
230
1
100
AcDbArc
50
0
51
89.999999999999901
0
LWPOLYLINE
5
129
100
AcDbEntity
8
0
100
AcDbPolyline
90
6
70
1
43
0.0
10
-13.073416284647422
20
27.62236056133581
10
-14.975882182232041
20
30.793137057310172
42
0.76066728515371551
10
-15.440255413660175
20
30.664513118453289
10
-15.44025541366018
20
23.985457407777062
42
0.77798803501655822
10
-14.970488797181208
20
23.866282602212358
10
-13.068022899596592
20
27.374561816914227
42
0.26530305271793503
0
LINE
5
130
100
AcDbEntity
8
0
100
AcDbLine
10
-15.500000224713872
20
22.000000334998635
30
0
11
-15.500000224713872
21
15.500000223581152
31
0
0
LINE
5
131
100
AcDbEntity
8
0
100
AcDbLine
10
-14.500000224663703
20
15.500000223581157
30
0
11
-14.500000224663703
21
22.000000334998635
31
0
0
ARC
5
132
100
AcDbEntity
8
0
100
AcDbCircle
10
-15.000000224663708
20
15.500000223581157
30
0
40
0.50000000000000933
210
0
220
0
230
1
100
AcDbArc
50
-90.000000001130545
51
0
0
ARC
5
133
100
AcDbEntity
8
0
100
AcDbCircle
10
-15.000000224713867
20
15.500000223581152
30
0
40
0.50000000000000488
210
0
220
0
230
1
100
AcDbArc
50
180
51
270.00000000461722
0
ARC
5
134
100
AcDbEntity
8
0
100
AcDbCircle
10
-15.00000022471388
20
22.000000334998635
30
0
40
0.49999999999999378
210
0
220
-0
230
1
100
AcDbArc
50
89.99999999924502
51
180
0
ARC
5
135
100
AcDbEntity
8
0
100
AcDbCircle
10
-15.000000224663697
20
22.000000334998635
30
0
40
0.49999999999999378
210
-0
220
0
230
1
100
AcDbArc
50
0
51
90.000000004995456
0
ARC
5
136
100
AcDbEntity
8
0
100
AcDbCircle
10
-15.000000224713867
20
15.500000223581152
30
0
40
2.3986626178655697
210
0
220
0
230
1
100
AcDbArc
50
262.06206985575443
51
285.1828840811375
0
LWPOLYLINE
5
137
100
AcDbEntity
8
0
100
AcDbPolyline
90
7
70
1
43
0.0
10
-5.3723239065904522
20
3.4101915400242104
10
-5.3723239065905046
20
6.2607128153451619
42
-0.010559259373798814
10
-5.9582013928255817
20
6.500023408943294
10
-7.362563751626646
20
6.500023408943294
42
0.25128267122813447
10
-7.5708562870873708
20
6.3882874585514777
42
-0.20458028168906456
10
-9.6329726193444714
20
5.033860423146221
42
0.70967986489095802
10
-9.6551642830971698
20
4.8953366068040607
0
ARC
5
138
100
AcDbEntity
8
0
100
AcDbCircle
10
-10.18777119590472
20
8.1255422025076545
30
0
40
0.86577562193913316
210
0
220
0
230
1
100
AcDbArc
50
265.95661104119881
51
310.79692882700567
0
SPLINE
5
139
100
AcDbEntity
8
0
100
AcDbSpline
70
4
71
5
72
21
73
15
74
0
42
0.000000001
43
0.0000000001
44
0.0000000001
40
0
40
0
40
0
40
0
40
0
40
0
40
0.10000000000000001
40
0.20000000000000001
40
0.30000000000000004
40
0.40000000000000002
40
0.5
40
0.59999999999999998
40
0.69999999999999996
40
0.79999999999999993
40
0.89999999999999991
40
1
40
1
40
1
40
1
40
1
40
1
41
1
41
1
41
1
41
1
41
1
41
1
41
1
41
1
41
1
41
1
41
1
41
1
41
1
41
1
41
1
10
-14.371788354122511
20
13.185063464187131
30
0
10
-14.311917746365827
20
13.144693868783282
30
0
10
-14.219275928692333
20
13.09359419792403
30
0
10
-14.16234258111748
20
13.10697245656452
30
0
10
-14.15665951693601
20
13.182168038058006
30
0
10
-13.915387875672875
20
12.934103958591439
30
0
10
-13.128504445993192
20
11.965128219367237
30
0
10
-12.048336656680835
20
10.699459200036188
30
0
10
-11.070483011714822
20
9.6796571261104596
30
0
10
-10.30647980232958
20
8.9572001824205376
30
0
10
-9.8180281641791876
20
8.4763868250893193
30
0
10
-9.6307102423424045
20
8.1384398851514987
30
0
10
-9.5903426617703307
20
7.8347007693410307
30
0
10
-9.6046294862477026
20
7.597429053198141
30
0
10
-9.6220906970632285
20
7.4701240148026313
30
0
0
SPLINE
5
140
100
AcDbEntity
8
0
100
AcDbSpline
70
4
71
5
72
36
73
30
74
0
42
0.000000001
43
0.0000000001
44
0.0000000001
40
0
40
0
40
0
40
0
40
0
40
0
40
0.040000000000000001
40
0.080000000000000002
40
0.12
40
0.16
40
0.20000000000000001
40
0.24000000000000002
40
0.28000000000000003
40
0.32000000000000001
40
0.35999999999999999
40
0.39999999999999997
40
0.43999999999999995
40
0.47999999999999993
40
0.51999999999999991
40
0.55999999999999994
40
0.59999999999999998
40
0.64000000000000001
40
0.68000000000000005
40
0.72000000000000008
40
0.76000000000000012
40
0.80000000000000016
40
0.84000000000000019
40
0.88000000000000023
40
0.92000000000000026
40
0.9600000000000003
40
1
40
1
40
1
40
1
40
1
40
1
41
1
41
1
41
1
41
1
41
1
41
1
41
1
41
1
41
1
41
1
41
1
41
1
41
1
41
1
41
1
41
1
41
1
41
1
41
1
41
1
41
1
41
1
41
1
41
1
41
1
41
1
41
1
41
1
41
1
41
1
10
-11.065563807830879
20
7.3341807440643247
30
0
10
-11.122372912917928
20
7.3402202427577921
30
0
10
-11.234651542411058
20
7.3454746910205717
30
0
10
-11.399050489806054
20
7.3328878901546224
30
0
10
-11.606932153030272
20
7.2931428140775818
30
0
10
-11.831744276293598
20
7.2953222942302496
30
0
10
-12.005749933679695
20
7.4392562643677973
30
0
10
-12.121933597702492
20
7.7712724127713955
30
0
10
-12.190676602675222
20
8.2451879925870095
30
0
10
-12.23771162335261
20
8.7614263997931392
30
0
10
-12.299567222991058
20
9.2062335231206287
30
0
10
-12.423927112972033
20
9.4992901526380944
30
0
10
-12.659208023538415
20
9.618128425925967
30
0
10
-13.072114687206993
20
9.6846077212045518
30
0
10
-13.613888199986249
20
9.7484506871808083
30
0
10
-14.178804863881027
20
9.8163581926353203
30
0
10
-14.649700024304906
20
9.8797730993315085
30
0
10
-14.9500362416057
20
9.9425469740069214
30
0
10
-15.08665017408685
20
10.044622954714495
30
0
10
-15.22071040847224
20
10.301901968287844
30
0
10
-15.37280857331411
20
10.724167506338663
30
0
10
-15.512079784485781
20
11.268027589733379
30
0
10
-15.581861559463041
20
11.848725945611951
30
0
10
-15.547783956904182
20
12.370378409116285
30
0
10
-15.439101979284755
20
12.740612636868377
30
0
10
-15.39366663993464
20
12.907215443063048
30
0
10
-15.385797783744582
20
12.965991832759936
30
0
10
-15.368638600688815
20
13.028559687527427
30
0
10
-15.345626784901928
20
13.089250694203711
30
0
10
-15.331256105480872
20
13.124320974228878
30
0
0
ARC
5
141
100
AcDbEntity
8
0
100
AcDbCircle
10
-8.6129428419997414
20
30.404175334396722
30
0
40
23.20000000000001
210
0
220
0
230
1
100
AcDbArc
50
263.93155580520869
51
265.95661104119932
0
LWPOLYLINE
5
142
100
AcDbEntity
8
0
100
AcDbPolyline
90
8
70
1
43
0.0
10
-6.4520922573461199
20
2.2707382171213322
10
-9.3083119503539233
20
3.7199594905435647
42
0.50748705603206878
10
-9.5242231282097691
20
3.6103667050700325
10
-9.7850488791890946
20
2.013059301089402
42
0.4624569088276963
10
-9.6370095493819932
20
1.8388858267803658
10
-6.5199641054789303
20
1.8388858267850037
42
0.41421356239469764
10
-6.369964105479065
20
1.9888858267850249
10
-6.369964105478612
20
2.1369719574423045
42
0.28248686133281442
0
LWPOLYLINE
5
143
100
AcDbEntity
8
0
100
AcDbPolyline
90
8
70
1
43
0.0
10
9.6580554517701174
20
3.1826739101736008
42
0.3396522821268354
10
10.124084471757513
20
3.3548621412959632
10
10.241060823529637
20
4.8963778097721615
42
0.31273306131021184
10
10.125761421350001
20
5.092956980376071
42
-0.31650098259407183
10
9.6079324074835188
20
5.9898638458369913
42
0.31273327683117774
10
9.4953395460615333
20
6.1880057869945935
10
8.1018596495038828
20
6.8574589435512303
42
0.33965216544610838
10
7.7197258517030374
20
6.5399601868937633
42
0.39147201389812614
0
LWPOLYLINE
5
144
100
AcDbEntity
8
0
100
AcDbPolyline
90
8
70
1
43
0.0
10
10.884582965182176
20
3.3548619058914806
42
0.33965216544610854
10
11.35061185301794
20
3.1826737076800571
42
0.39147201389812591
10
13.288942256400931
20
6.5399595206055583
42
0.33965228212683585
10
12.906808364022559
20
6.8574583752542262
10
11.513328458904352
20
6.1880050332927858
42
0.31273306131020123
10
11.40073560439631
20
5.9898632366621127
42
-0.31650090743650761
10
10.882906204128114
20
5.0929568265542464
42
0.31273315186419187
10
10.767606727067442
20
4.8963776369987704
0
LWPOLYLINE
5
145
100
AcDbEntity
8
0
100
AcDbPolyline
90
8
70
1
43
0.0
10
12.526559321176492
20
7.516069507802019
42
0.33965216544610805
10
12.442664231141574
20
8.0057564626709095
42
0.39147201389812603
10
8.5660042276915025
20
8.0057569264655708
42
0.33965228212683551
10
8.4821091000824769
20
7.5160698406945396
10
9.7586126534285373
20
6.6440075141797834
42
0.31273306131020473
10
9.9865049101162136
20
6.6455701402065532
42
-0.31650098259407494
10
11.022163547367335
20
6.6455697883011009
42
0.31273327683117874
10
11.250055932675975
20
6.6440070959985196
0
ARC
5
146
100
AcDbEntity
8
0
100
AcDbCircle
10
10.504333978620849
20
5.9094634524149097
30
0
40
5.0000000000000009
210
0
220
0
230
1
100
AcDbArc
50
182.96675813423141
51
238.75325023542163
0
ARC
5
147
100
AcDbEntity
8
0
100
AcDbCircle
10
0.0035760773233402205
20
20.241856943372149
30
0
40
14.435627905180175
210
-0
220
0
230
1
100
AcDbArc
50
293.69040809815965
51
293.72751697147118
0
ARC
5
148
100
AcDbEntity
8
0
100
AcDbCircle
10
7.7810289861191393
20
1.4210216383855809
30
0
40
0.24999999999999925
210
0
220
0
230
1
100
AcDbArc
50
-81.975321823105816
51
58.753250235468457
0
LWPOLYLINE
5
149
100
AcDbEntity
8
0
100
AcDbPolyline
90
6
70
1
43
0.0
10
2.4968567241049762
20
1.2337605538917642
10
1.3082768529588127
20
1.2337605538917642
42
-0.59337434512292109
10
1.140041157883501
20
1.541912072154465
10
1.8777803882500863
20
2.6895064305024858
42
-0.61170320909831943
10
2.2321663820134656
20
2.6544853867243852
10
2.6830070227930456
20
1.5068910283763635
42
-0.52862241659074394
0
SPLINE
5
150
100
AcDbEntity
8
0
100
AcDbSpline
70
6
71
5
72
36
73
30
74
0
42
0.000000001
43
0.0000000001
44
0.0000000001
40
0
40
0
40
0
40
0
40
0
40
0
40
0.040000000000000001
40
0.080000000000000002
40
0.12
40
0.16
40
0.20000000000000001
40
0.24000000000000002
40
0.28000000000000003
40
0.32000000000000001
40
0.35999999999999999
40
0.39999999999999997
40
0.43999999999999995
40
0.47999999999999993
40
0.51999999999999991
40
0.55999999999999994
40
0.59999999999999998
40
0.64000000000000001
40
0.68000000000000005
40
0.72000000000000008
40
0.76000000000000012
40
0.80000000000000016
40
0.84000000000000019
40
0.88000000000000023
40
0.92000000000000026
40
0.9600000000000003
40
1
40
1
40
1
40
1
40
1
40
1
41
1
41
1
41
1
41
1
41
1
41
1
41
1
41
1
41
1
41
1
41
1
41
1
41
1
41
1
41
1
41
1
41
1
41
1
41
1
41
1
41
1
41
1
41
1
41
1
41
1
41
1
41
1
41
1
41
1
41
1
10
3.0160427239545062
20
4.2672176255363068
30
0
10
2.9657629546318405
20
4.2322689972718912
30
0
10
2.8713279198517752
20
4.1866408657220378
30
0
10
2.7411527644361104
20
4.1916276255224814
30
0
10
2.552393284641099
20
4.3189664594353703
30
0
10
2.2699705187648704
20
4.5037185939696673
30
0
10
1.9332398638249542
20
4.5424235823529555
30
0
10
1.5560838994220045
20
4.3636067121163356
30
0
10
1.1555029403694896
20
4.0635275303377059
30
0
10
0.75503328675026049
20
3.8108531564046046
30
0
10
0.38144822228364794
20
3.7745079699782966
30
0
10
0.064061356036265713
20
4.0517944802520915
30
0
10
-0.16642405513781278
20
4.5729388111784139
30
0
10
-0.27985375074770036
20
5.1164345895008125
30
0
10
-0.241408403731628
20
5.479252974563896
30
0
10
-0.021044836776720772
20
5.5287895439259751
30
0
10
0.431445509557914
20
5.4719092191375607
30
0
10
1.1105965144912435
20
5.5268575284806278
30
0
10
1.9385100962333102
20
5.7172646118402559
30
0
10
2.804150467572847
20
6.0043531176126406
30
0
10
3.5804760347974742
20
6.2844847623227986
30
0
10
4.1494618947378656
20
6.4434238755692146
30
0
10
4.4268185311463277
20
6.3858698617182199
30
0
10
4.3793928229336467
20
6.0756709534828648
30
0
10
4.0832212152955618
20
5.5766539637903776
30
0
10
3.6729239184504765
20
5.0075793215856566
30
0
10
3.3583022259907205
20
4.6097680003187582
30
0
10
3.1730065357877582
20
4.3963326353085197
30
0
10
3.0663224932771715
20
4.3021662538007224
30
0
10
3.0160427239545062
20
4.2672176255363068
30
0
0
LWPOLYLINE
5
151
100
AcDbEntity
8
0
100
AcDbPolyline
90
6
70
1
43
0.0
10
-0.95303681413775121
20
1.2817156664481648
10
-3.0625286740894353
20
1.2817156664481653
42
-0.57982856011544648
10
-3.148757484738522
20
1.4323574694774532
10
-1.2822682463035764
20
4.6104660178692702
42
-0.72791796582696011
10
-1.0964780454847849
20
4.5691799396792439
10
-0.79300118316798929
20
1.3396516229103121
42
-0.17543833209954013
0
LWPOLYLINE
5
152
100
AcDbEntity
8
0
100
AcDbPolyline
90
6
70
1
43
0.0
10
-4.1872480480998782
20
2.6269234240086634
10
-4.1872480481012699
20
5.7410121765485833
42
-0.49425139542141988
10
-3.871684767636157
20
5.9822619563461572
42
0.026234333777525098
10
-2.3570993580744632
20
5.6548453474690756
42
-0.52692509157217471
10
-2.2867672488714916
20
5.5056223930172639
10
-4.0009403819636864
20
2.5764161298213524
42
-0.76499896938386602
0
LWPOLYLINE
5
153
100
AcDbEntity
8
0
100
AcDbPolyline
90
8
70
1
43
0.0
10
14.333563537914582
20
8.8706270022803348
42
0.12911119244720182
10
12.384639369110214
20
10.369949998214388
42
-0.48756471729225442
10
12.178634975748587
20
11.130384042611583
42
0.046408325241968224
10
13.651705104150768
20
13.533044377707977
42
-0.28580943429604683
10
14.100341007317169
20
13.812305105281066
10
14.729095393869954
20
13.812305105282299
42
-0.41421356237310281
10
15.229095393870935
20
13.312305105283269
10
15.229095393891166
20
9.1764938866080765
42
-0.71517116973209971
0
ARC
5
154
100
AcDbEntity
8
0
100
AcDbCircle
10
-6.150000000000011
20
30.000000000000007
30
0
40
10.499999999999989
210
0
220
-0
230
1
100
AcDbArc
50
89.999999999999972
51
180
0
ARC
5
155
100
AcDbEntity
8
0
100
AcDbCircle
10
6.1500000000000128
20
30.000000000000007
30
0
40
10.499999999999989
210
-0
220
0
230
1
100
AcDbArc
50
0
51
90.000000000000057
0
ARC
5
156
100
AcDbEntity
8
0
100
AcDbCircle
10
-6.1500000000000092
20
10.499999999999991
30
0
40
10.499999999999991
210
0
220
0
230
1
100
AcDbArc
50
180
51
270.00000000000006
0
ARC
5
157
100
AcDbEntity
8
0
100
AcDbCircle
10
6.1500000000000092
20
10.499999999999991
30
0
40
10.499999999999991
210
0
220
0
230
1
100
AcDbArc
50
-90.000000000000057
51
0
0
SPLINE
5
158
100
AcDbEntity
8
0
100
AcDbSpline
70
4
71
5
72
21
73
15
74
0
42
0.000000001
43
0.0000000001
44
0.0000000001
40
0
40
0
40
0
40
0
40
0
40
0
40
0.10000000000000001
40
0.20000000000000001
40
0.30000000000000004
40
0.40000000000000002
40
0.5
40
0.59999999999999998
40
0.69999999999999996
40
0.79999999999999993
40
0.89999999999999991
40
1
40
1
40
1
40
1
40
1
40
1
41
1
41
1
41
1
41
1
41
1
41
1
41
1
41
1
41
1
41
1
41
1
41
1
41
1
41
1
41
1
10
-11.264607177927481
20
36.983267109272248
30
0
10
-11.228292895334196
20
37.02758947199743
30
0
10
-11.150595222727802
20
37.104920849369776
30
0
10
-11.018840553876819
20
37.186979828323757
30
0
10
-10.812609552150864
20
37.231237651434782
30
0
10
-10.503708735939846
20
37.192582834404078
30
0
10
-10.145547690764952
20
37.078261425554395
30
0
10
-9.7439639123031192
20
36.907544344877742
30
0
10
-9.3130504031364723
20
36.6989117484868
30
0
10
-8.8749663903857652
20
36.468978985630109
30
0
10
-8.4545797902071289
20
36.231813048536324
30
0
10
-8.1516291038567541
20
36.04507921671992
30
0
10
-7.9515754053282661
20
35.910004184032132
30
0
10
-7.8313882651676616
20
35.822541501905498
30
0
10
-7.7745903493891175
20
35.779457065485801
30
0
0
LINE
5
159
100
AcDbEntity
8
0
100
AcDbLine
10
5.2477846753711237
20
5.8952300755193576
30
0
11
5.3097192759326806
21
5.8830217168767689
31
0
0
SPLINE
5
160
100
AcDbEntity
8
0
100
AcDbSpline
70
4
71
5
72
26
73
20
74
0
42
0.000000001
43
0.0000000001
44
0.0000000001
40
0
40
0
40
0
40
0
40
0
40
0
40
0.066666666666666666
40
0.13333333333333333
40
0.20000000000000001
40
0.26666666666666666
40
0.33333333333333331
40
0.39999999999999997
40
0.46666666666666662
40
0.53333333333333333
40
0.59999999999999998
40
0.66666666666666663
40
0.73333333333333328
40
0.79999999999999993
40
0.86666666666666659
40
0.93333333333333324
40
1
40
1
40
1
40
1
40
1
40
1
41
1
41
1
41
1
41
1
41
1
41
1
41
1
41
1
41
1
41
1
41
1
41
1
41
1
41
1
41
1
41
1
41
1
41
1
41
1
41
1
10
7.815928889065292
20
1.1734696301643814
30
0
10
7.6249826886974992
20
1.1390108655966398
30
0
10
7.2526997467895313
20
1.0731250525121452
30
0
10
6.7230980615939231
20
0.98341518456187715
30
0
10
6.0750759516098327
20
0.88196614693708208
30
0
10
5.3647644862474611
20
0.79260925944786054
30
0
10
4.7592340056138172
20
0.75714712361722236
30
0
10
4.2635051016427559
20
0.81439940923503584
30
0
10
3.8857325384822277
20
1.0143301430171112
30
0
10
3.6264881250545811
20
1.4664696417835896
30
0
10
3.5142368515685929
20
2.1819086183373733
30
0
10
3.5802810806483003
20
3.0761172917212143
30
0
10
3.8423191494289539
20
4.0209071153389555
30
0
10
4.2513517861957864
20
4.8618210179477659
30
0
10
4.7272585940091449
20
5.474096542696274
30
0
10
4.9721579026504745
20
5.7419937302508695
30
0
10
4.9801011053287452
20
5.7699150089002815
30
0
10
4.984162632024427
20
5.784462744370753
30
0
10
5.0046547338447533
20
5.808108887679535
30
0
10
5.019440885480968
20
5.823448659112036
30
0
0
ARC
5
161
100
AcDbEntity
8
0
100
AcDbCircle
10
5.199435790547752
20
5.649949857531162
30
0
40
0.25000000000000044
210
0
220
-0
230
1
100
AcDbArc
50
78.848989314986952
51
136.05279787496227
0
ARC
5
162
100
AcDbEntity
8
0
100
AcDbCircle
10
5.2613703911093079
20
5.6377414988885723
30
0
40
0.25000000000000455
210
-0
220
0
230
1
100
AcDbArc
50
2.9667581342315379
51
78.848989314986781
0
LINE
5
163
100
AcDbEntity
8
0
100
AcDbLine
10
6.8881523291519864
20
33.214986011350639
30
0
11
6.7728782019509257
21
33.407109556685739
31
0
0
LINE
5
164
100
AcDbEntity
8
0
100
AcDbLine
10
6.7728782019509257
20
33.407109556685739
30
0
11
5.0111177756767624
21
37.434875052387866
31
0
0
LINE
5
165
100
AcDbEntity
8
0
100
AcDbLine
10
9.0000001341104507
20
33.000000491738319
30
0
11
6.6992624234051226
21
38.259984668472548
31
0
0
SPLINE
5
166
100
AcDbEntity
8
0
100
AcDbSpline
70
4
71
5
72
31
73
25
74
0
42
0.000000001
43
0.0000000001
44
0.0000000001
40
0.87677531468675329
40
0.87677531468675329
40
0.87677531468675329
40
0.87677531468675329
40
0.87677531468675329
40
0.87677531468675329
40
0.89999999999999991
40
0.93333333333333324
40
0.96666666666666656
40
1
40
1
40
1
40
1
40
1
40
1.0333333333333334
40
1.0666666666666667
40
1.1000000000000001
40
1.1333333333333333
40
1.1666666666666667
40
1.2
40
1.2333333333333334
40
1.2666666666666666
40
1.3
40
1.3333333333333333
40
1.3666666666666667
40
1.386092380677181
40
1.386092380677181
40
1.386092380677181
40
1.386092380677181
40
1.386092380677181
40
1.386092380677181
41
1
41
1
41
1
41
1
41
1
41
1
41
1
41
1
41
1
41
1
41
1
41
1
41
1
41
1
41
1
41
1
41
1
41
1
41
1
41
1
41
1
41
1
41
1
41
1
41
1
10
5.0111177756767624
20
37.434875052387866
30
0
10
4.8042206398506133
20
37.324704589134747
30
0
10
4.3038606215030377
20
37.052184513807255
30
0
10
3.5320391337021868
20
36.609393627606138
30
0
10
2.5774754498789827
20
36.0166077043908
30
0
10
1.8665454483748398
20
35.511213858861971
30
0
10
1.4986191439299135
20
35.191928805322775
30
0
10
1.348515352254759
20
35.021757071461693
30
0
10
1.2965106364354346
20
34.946993787433499
30
0
10
1.2445059206161104
20
34.872230503405319
30
0
10
1.1865908490139692
20
34.743349101153676
30
0
10
1.2335137848975237
20
34.609870539855045
30
0
10
1.5209094820841558
20
34.52793572051894
30
0
10
2.0912348805364234
20
34.493770325902105
30
0
10
2.7249725639146543
20
34.451231010071645
30
0
10
3.3460605727157917
20
34.374262311267103
30
0
10
3.9252188886805883
20
34.264896833698558
30
0
10
4.4658557983864124
20
34.137879311430574
30
0
10
4.9869378788205889
20
34.004479148364048
30
0
10
5.5051679791079575
20
33.852055413516588
30
0
10
5.9868683084089476
20
33.671072575385679
30
0
10
6.3711266914814129
20
33.490483649590878
30
0
10
6.6516562043887131
20
33.342997379060876
30
0
10
6.8244404933319096
20
33.249575807069242
30
0
10
6.8881485705594683
20
33.214988051928479
30
0
0
SPLINE
5
167
100
AcDbEntity
8
0
100
AcDbSpline
70
4
71
5
72
22
73
16
74
0
42
0.000000001
43
0.0000000001
44
0.0000000001
40
1.5212803298408542
40
1.5212803298408542
40
1.5212803298408542
40
1.5212803298408542
40
1.5212803298408542
40
1.5212803298408542
40
1.5333333333333332
40
1.5666666666666667
40
1.6000000000000001
40
1.6333333333333333
40
1.6666666666666665
40
1.7
40
1.7333333333333334
40
1.7666666666666666
40
1.7999999999999998
40
1.8333333333333333
40
1.838703537060739
40
1.838703537060739
40
1.838703537060739
40
1.838703537060739
40
1.838703537060739
40
1.838703537060739
41
1
41
1
41
1
41
1
41
1
41
1
41
1
41
1
41
1
41
1
41
1
41
1
41
1
41
1
41
1
41
1
10
9.0000001341239884
20
33.000000491751962
30
0
10
9.032630345578827
20
33.03286493347602
30
0
10
9.1541123830744233
20
33.164890811344939
30
0
10
9.3554541125740744
20
33.447925509342056
30
0
10
9.616340863859909
20
33.981629536631999
30
0
10
9.9000844957542107
20
34.872153500524206
30
0
10
10.132554037922489
20
36.033822159735436
30
0
10
10.246359875210553
20
37.177171352955185
30
0
10
10.194379420827627
20
38.141664229005258
30
0
10
9.9197737723105064
20
38.792079223556215
30
0
10
9.308561066620447
20
39.04543861437871
30
0
10
8.4699933766772268
20
38.924466321538006
30
0
10
7.6729614380610744
20
38.663738701347953
30
0
10
7.0764730973703704
20
38.423853936313336
30
0
10
6.7453929794613376
20
38.280194102165296
30
0
10
6.6992624234051235
20
38.259984668472548
30
0
0
ENDSEC
0
SECTION
2
OBJECTS
0
DICTIONARY
5
C
100
AcDbDictionary
3
ACAD_GROUP
350
D
3
ACAD_MLINESTYLE
350
17
0
DICTIONARY
5
D
100
AcDbDictionary
0
DICTIONARY
5
1A
330
C
100
AcDbDictionary
0
DICTIONARY
5
17
100
AcDbDictionary
0
ENDSEC
0
EOF
